<?xml version="1.0" encoding="iso-8859-1"?>
<!-- Generator: Adobe Illustrator 19.0.0, SVG Export Plug-In . SVG Version: 6.00 Build 0)  -->
<svg version="1.1" id="Capa_1" xmlns="http://www.w3.org/2000/svg" xmlns:xlink="http://www.w3.org/1999/xlink" x="0px" y="0px"
	 viewBox="0 0 512 512" style="enable-background:new 0 0 512 512;" xml:space="preserve">
<g>
	<g>
		<path d="M256,0C158.041,0,78.342,79.693,78.342,177.658c0,65.178,36.192,125.298,93.147,156.37v36.71
			c0,10.221,8.285,18.506,18.506,18.506h131.399c10.221,0,18.506-8.284,18.506-18.506v-36.66
			c57.332-30.948,93.758-91.093,93.758-156.419C433.658,79.693,353.959,0,256,0z M313.72,305.781
			c-6.6,3.004-10.838,9.586-10.838,16.841v29.61h-94.381v-29.61c0-7.224-4.207-13.793-10.764-16.81
			c-50.046-23.052-82.383-73.358-82.383-128.154c0-77.553,63.093-140.646,140.646-140.646s140.646,63.093,140.646,140.646
			C396.646,232.541,364.094,282.834,313.72,305.781z"/>
	</g>
</g>
<g>
	<g>
		<path d="M307.2,413.918H204.8c-10.221,0-18.506,8.285-18.506,18.506c0,10.221,8.284,18.506,18.506,18.506h102.4
			c10.221,0,18.506-8.285,18.506-18.506C325.706,422.203,317.421,413.918,307.2,413.918z"/>
	</g>
</g>
<g>
	<g>
		<path d="M277.59,474.988H234.41c-10.221,0-18.506,8.285-18.506,18.506c0,10.221,8.285,18.506,18.506,18.506h43.181
			c10.221,0,18.506-8.285,18.506-18.506C296.096,483.273,287.812,474.988,277.59,474.988z"/>
	</g>
</g>
<g>
</g>
<g>
</g>
<g>
</g>
<g>
</g>
<g>
</g>
<g>
</g>
<g>
</g>
<g>
</g>
<g>
</g>
<g>
</g>
<g>
</g>
<g>
</g>
<g>
</g>
<g>
</g>
<g>
</g>
</svg>
